HIERARCHY
ROOT Hips
{
    OFFSET 0.000000 0.000000 0.000000
    CHANNELS 6 Xposition Yposition Zposition Zrotation Xrotation Yrotation
    JOINT Spine
    {
        OFFSET -0.000000 7.236184 0.000000
        CHANNELS 3 Zrotation Xrotation Yrotation
        JOINT Spine1
        {
            OFFSET -0.000000 20.420147 0.000000
            CHANNELS 3 Zrotation Xrotation Yrotation
            JOINT Neck
            {
                OFFSET -0.000000 20.336288 1.848754
                CHANNELS 3 Zrotation Xrotation Yrotation
                JOINT Head
                {
                    OFFSET -0.000000 12.354461 -1.764923
                    CHANNELS 3 Zrotation Xrotation Yrotation
                    End Site
                    {
                        OFFSET -0.000000 22.061537 0.000000
                    }
                }
            }
            JOINT LeftShoulder
            {
                OFFSET 3.573296 18.396038 -0.314103
                CHANNELS 3 Zrotation Xrotation Yrotation
                JOINT LeftArm
                {
                    OFFSET 10.880760 0.000000 0.000000
                    CHANNELS 3 Zrotation Xrotation Yrotation
                    JOINT LeftForeArm
                    {
                        OFFSET 27.185530 0.000000 0.000000
                        CHANNELS 3 Zrotation Xrotation Yrotation
                        JOINT LeftHand
                        {
                            OFFSET 27.825975 0.000000 0.000000
                            CHANNELS 3 Zrotation Xrotation Yrotation
                            End Site
                            {
                                OFFSET 13.236923 0.000000 0.000000
                            }
                        }
                    }
                }
            }
            JOINT RightShoulder
            {
                OFFSET -3.474926 18.396038 -0.314103
                CHANNELS 3 Zrotation Xrotation Yrotation
                JOINT RightArm
                {
                    OFFSET -10.880760 0.000000 0.000000
                    CHANNELS 3 Zrotation Xrotation Yrotation
                    JOINT RightForeArm
                    {
                        OFFSET -27.185530 0.000000 0.000000
                        CHANNELS 3 Zrotation Xrotation Yrotation
                        JOINT RightHand
                        {
                            OFFSET -27.825975 0.000000 0.000000
                            CHANNELS 3 Zrotation Xrotation Yrotation
                            End Site
                            {
                                OFFSET -13.236923 0.000000 0.000000
                            }
                        }
                    }
                }
            }
        }
    }
    JOINT LeftUpLeg
    {
        OFFSET 8.824615 0.000000 0.000000
        CHANNELS 3 Zrotation Xrotation Yrotation
        JOINT LeftLeg
        {
            OFFSET -0.000000 -35.111282 0.000000
            CHANNELS 3 Zrotation Xrotation Yrotation
            JOINT LeftFoot
            {
                OFFSET -0.000000 -42.324711 0.000000
                CHANNELS 3 Zrotation Xrotation Yrotation
                JOINT LeftToeBase
                {
                    OFFSET -0.000000 -5.735999 13.236923
                    CHANNELS 3 Zrotation Xrotation Yrotation
                    End Site
                    {
                        OFFSET -0.000000 0.000000 3.529846
                    }
                }
            }
        }
    }
    JOINT RightUpLeg
    {
        OFFSET -8.824615 0.000000 0.000000
        CHANNELS 3 Zrotation Xrotation Yrotation
        JOINT RightLeg
        {
            OFFSET -0.000000 -35.111282 0.000000
            CHANNELS 3 Zrotation Xrotation Yrotation
            JOINT RightFoot
            {
                OFFSET -0.000000 -42.324711 0.000000
                CHANNELS 3 Zrotation Xrotation Yrotation
                JOINT RightToeBase
                {
                    OFFSET -0.000000 -5.735999 13.236923
                    CHANNELS 3 Zrotation Xrotation Yrotation
                    End Site
                    {
                        OFFSET -0.000000 0.000000 3.529846
                    }
                }
            }
        }
    }
}
MOTION
Frames:    8
Frame Time:    0.008333
4.010992    80.385773    108.236633    3.533374    -14.959167    -172.070984    -3.000921    -11.308418    0.305061    1.481735    7.902994    0.499912    3.576574    1.494467    -6.981867    22.214525    -18.115240    -1.127951    4.286015    6.008686    -13.092524    -30.771828    22.667580    -62.460918    6.731481    7.460141    -9.087066    34.207050    10.318604    7.650583    -2.050814    9.071973    7.501277    28.913347    22.518459    44.965816    -9.782044    -8.948112    19.146629    -23.418865    -7.063118    -1.204562    6.912409    -36.101303    -5.395469    2.665830    37.374454    4.627105    -10.565741    -12.389834    -14.898818    -0.295363    -1.560850    0.328332    -14.151609    -23.492460    -5.705018    3.715462    24.935354    1.396222    11.059260    -11.036222    -13.187347    -1.371660    -1.018111    1.485636    
3.708882    80.246414    108.294083    3.782004    -14.904525    -171.982300    -2.974593    -11.274389    0.303502    1.584086    8.095152    0.485124    3.908109    1.198832    -7.046771    22.427809    -18.356083    -1.140592    4.734746    5.719135    -13.467514    -30.592112    22.294312    -63.112167    7.256978    7.650309    -9.317931    36.190228    10.442375    6.831980    -2.554239    8.872385    7.850455    29.323769    21.895624    44.425056    -10.353542    -8.807679    19.712534    -24.786570    -6.792251    -1.048623    6.801292    -36.431248    -5.060934    3.175164    37.941212    3.986283    -10.484082    -12.745115    -14.928340    -0.235621    -1.452255    0.261870    -14.227405    -23.623457    -6.041955    3.615673    25.266012    1.641405    11.438619    -11.036343    -13.040923    -1.436187    -1.114515    1.555733    
3.416020    80.119232    108.346222    4.024189    -14.853515    -171.895508    -2.946963    -11.246775    0.303415    1.684393    8.276446    0.471799    4.232941    0.917778    -7.108186    22.627836    -18.584215    -1.155475    5.170411    5.440288    -13.824369    -30.430737    21.942614    -63.718288    7.782794    7.812502    -9.558757    38.122982    10.511065    6.019242    -3.036048    8.682301    8.170717    29.723194    21.308971    43.889481    -10.914233    -8.695333    20.268160    -26.103830    -6.552366    -0.885492    6.696652    -36.736343    -4.742315    3.672526    38.458088    3.372848    -10.409570    -13.073160    -14.963926    -0.177549    -1.351950    0.197292    -14.298210    -23.731655    -6.360922    3.518041    25.552286    1.872324    11.805770    -11.010979    -12.891925    -1.488704    -1.220012    1.612859    
3.122382    80.006622    108.391907    4.268921    -14.806414    -171.807693    -2.916474    -11.228508    0.305572    1.787183    8.447331    0.460300    4.561545    0.647517    -7.170426    22.818958    -18.800646    -1.177209    5.606130    5.165739    -14.169690    -30.288349    21.622829    -64.284607    8.318452    7.958895    -9.828049    40.023880    10.534774    5.195096    -3.505655    8.502146    8.462166    30.134199    20.754229    43.332966    -11.474627    -8.604613    20.840670    -27.388447    -6.332087    -0.716510    6.600550    -37.015835    -4.429476    4.162680    38.923073    2.776055    -10.342254    -13.374482    -15.008113    -0.119201    -1.260867    0.132433    -14.363076    -23.807001    -6.664989    3.421499    25.777866    2.084815    12.174859    -10.938976    -12.725995    -1.524014    -1.348598    1.651410    
2.830330    79.915154    108.428452    4.513849    -14.765779    -171.720749    -2.883899    -11.222562    0.310492    1.892562    8.600335    0.451583    4.890792    0.395365    -7.234414    22.997288    -18.997765    -1.208706    6.036709    4.901076    -14.495251    -30.167784    21.357054    -64.795532    8.854006    8.092155    -10.132717    41.840233    10.519442    4.374904    -3.952682    8.339925    8.714181    30.557756    20.249281    42.754814    -12.023387    -8.534087    21.433285    -28.604931    -6.129837    -0.549524    6.518523    -37.258759    -4.127545    4.626961    39.317116    2.212390    -10.282472    -13.639156    -15.058866    -0.061355    -1.181407    0.068155    -14.420080    -23.840076    -6.942006    3.331164    25.922453    2.262697    12.545535    -10.805189    -12.535965    -1.538409    -1.506258    1.667378    
2.534404    79.848137    108.454659    4.762561    -14.732759    -171.635223    -2.849501    -11.230687    0.318920    2.003080    8.731816    0.446238    5.225977    0.161880    -7.302307    23.164587    -19.173521    -1.252853    6.466834    4.644393    -14.802964    -30.063824    21.159203    -65.250015    9.395632    8.216181    -10.486844    43.575855    10.470080    3.551468    -4.377623    8.197862    8.925781    31.003529    19.796824    42.138844    -12.564654    -8.479459    22.064768    -29.751486    -5.937365    -0.386379    6.453985    -37.462029    -3.835416    5.055751    39.635540    1.685924    -10.226910    -13.867258    -15.113458    -0.003333    -1.113414    0.003701    -14.469959    -23.825928    -7.185362    3.251332    25.976183    2.394097    12.927811    -10.594769    -12.311241    -1.530916    -1.701238    1.659713    
2.239759    79.809776    108.468246    5.012305    -14.704691    -171.554535    -2.811863    -11.248840    0.331251    2.117346    8.833673    0.444699    5.560296    -0.045344    -7.373297    23.317724    -19.320318    -1.309907    6.886053    4.402641    -15.084018    -29.970959    21.046886    -65.634781    9.932706    8.327275    -10.891001    45.184177    10.391281    2.745541    -4.767038    8.082073    9.090553    31.462627    19.412998    41.492611    -13.085546    -8.438570    22.730705    -30.790161    -5.753192    -0.232916    6.416064    -37.612900    -3.561503    5.424297    39.866936    1.217324    -10.172677    -14.054583    -15.165797    0.053372    -1.057763    -0.059276    -14.508401    -23.758482    -7.378081    3.189176    25.933167    2.465321    13.317710    -10.305289    -12.052615    -1.502303    -1.932871    1.629228    
1.941026    79.802071    108.468842    5.263631    -14.683841    -171.480865    -2.773456    -11.278370    0.347682    2.237275    8.902386    0.447418    5.897073    -0.227663    -7.448673    23.459278    -19.435143    -1.381533    7.296762    4.174426    -15.339737    -29.878262    21.030540    -65.951530    10.473582    8.424634    -11.357466    46.680721    10.285624    1.950461    -5.121102    7.993686    9.209167    31.939831    19.097303    40.804012    -13.590666    -8.406465    23.447525    -31.723644    -5.568647    -0.088424    6.404196    -37.710079    -3.307265    5.722826    40.009033    0.815227    -10.115757    -14.203041    -15.214017    0.109119    -1.013620    -0.121178    -14.541389    -23.639744    -7.514698    3.150656    25.795042    2.470451    13.722590    -9.929795    -11.755375    -1.453363    -2.205704    1.576766    
